<svg xmlns="http://www.w3.org/2000/svg" xmlns:xlink="http://www.w3.org/1999/xlink" width="370" zoomAndPan="magnify" viewBox="0 0 277.5 74.999997" height="100" preserveAspectRatio="xMidYMid meet" version="1.0"><defs><g/></defs><g fill="#ff914d" fill-opacity="1"><g transform="translate(13.180244, 28.440202)"><g><path d="M 4.671875 -15.828125 C 7.609375 -15.828125 9.078125 -14.71875 9.078125 -12.5 L 9.078125 -10.953125 L 5.484375 -10.953125 L 5.484375 -12.3125 C 5.484375 -13 5.222656 -13.34375 4.703125 -13.34375 C 4.253906 -13.34375 4.03125 -13.023438 4.03125 -12.390625 L 4.03125 -11.609375 C 4.03125 -11.316406 4.128906 -11.046875 4.328125 -10.796875 C 4.535156 -10.546875 4.753906 -10.335938 4.984375 -10.171875 C 5.222656 -10.015625 5.59375 -9.785156 6.09375 -9.484375 C 6.71875 -9.109375 7.25 -8.738281 7.6875 -8.375 C 8.132812 -8.007812 8.519531 -7.539062 8.84375 -6.96875 C 9.164062 -6.40625 9.328125 -5.734375 9.328125 -4.953125 L 9.328125 -3.5625 C 9.328125 -2.101562 8.910156 -1.085938 8.078125 -0.515625 C 7.253906 0.046875 6.117188 0.328125 4.671875 0.328125 C 3.078125 0.328125 1.953125 0.0078125 1.296875 -0.625 C 0.648438 -1.257812 0.328125 -2.242188 0.328125 -3.578125 L 0.328125 -5.640625 L 4.0625 -5.640625 L 4.0625 -3.078125 C 4.0625 -2.460938 4.285156 -2.15625 4.734375 -2.15625 C 4.972656 -2.15625 5.15625 -2.25 5.28125 -2.4375 C 5.40625 -2.632812 5.46875 -2.960938 5.46875 -3.421875 L 5.46875 -4.25 C 5.46875 -4.644531 5.363281 -4.992188 5.15625 -5.296875 C 4.945312 -5.597656 4.710938 -5.84375 4.453125 -6.03125 C 4.203125 -6.21875 3.847656 -6.457031 3.390625 -6.75 C 2.765625 -7.125 2.242188 -7.476562 1.828125 -7.8125 C 1.421875 -8.144531 1.0625 -8.578125 0.75 -9.109375 C 0.445312 -9.648438 0.296875 -10.289062 0.296875 -11.03125 L 0.296875 -12.0625 C 0.296875 -14.570312 1.753906 -15.828125 4.671875 -15.828125 Z M 4.671875 -15.828125 "/></g></g></g><g fill="#ff914d" fill-opacity="1"><g transform="translate(22.809508, 28.440202)"><g><path d="M 4.109375 0 L 1.109375 0 L 1.109375 -3.125 L 4.109375 -3.125 Z M 4.109375 0 "/></g></g></g><g fill="#ff914d" fill-opacity="1"><g transform="translate(28.014515, 28.440202)"><g><path d="M 4.671875 -15.828125 C 7.609375 -15.828125 9.078125 -14.71875 9.078125 -12.5 L 9.078125 -10.953125 L 5.484375 -10.953125 L 5.484375 -12.3125 C 5.484375 -13 5.222656 -13.34375 4.703125 -13.34375 C 4.253906 -13.34375 4.03125 -13.023438 4.03125 -12.390625 L 4.03125 -11.609375 C 4.03125 -11.316406 4.128906 -11.046875 4.328125 -10.796875 C 4.535156 -10.546875 4.753906 -10.335938 4.984375 -10.171875 C 5.222656 -10.015625 5.59375 -9.785156 6.09375 -9.484375 C 6.71875 -9.109375 7.25 -8.738281 7.6875 -8.375 C 8.132812 -8.007812 8.519531 -7.539062 8.84375 -6.96875 C 9.164062 -6.40625 9.328125 -5.734375 9.328125 -4.953125 L 9.328125 -3.5625 C 9.328125 -2.101562 8.910156 -1.085938 8.078125 -0.515625 C 7.253906 0.046875 6.117188 0.328125 4.671875 0.328125 C 3.078125 0.328125 1.953125 0.0078125 1.296875 -0.625 C 0.648438 -1.257812 0.328125 -2.242188 0.328125 -3.578125 L 0.328125 -5.640625 L 4.0625 -5.640625 L 4.0625 -3.078125 C 4.0625 -2.460938 4.285156 -2.15625 4.734375 -2.15625 C 4.972656 -2.15625 5.15625 -2.25 5.28125 -2.4375 C 5.40625 -2.632812 5.46875 -2.960938 5.46875 -3.421875 L 5.46875 -4.25 C 5.46875 -4.644531 5.363281 -4.992188 5.15625 -5.296875 C 4.945312 -5.597656 4.710938 -5.84375 4.453125 -6.03125 C 4.203125 -6.21875 3.847656 -6.457031 3.390625 -6.75 C 2.765625 -7.125 2.242188 -7.476562 1.828125 -7.8125 C 1.421875 -8.144531 1.0625 -8.578125 0.75 -9.109375 C 0.445312 -9.648438 0.296875 -10.289062 0.296875 -11.03125 L 0.296875 -12.0625 C 0.296875 -14.570312 1.753906 -15.828125 4.671875 -15.828125 Z M 4.671875 -15.828125 "/></g></g></g><g fill="#ff914d" fill-opacity="1"><g transform="translate(37.643779, 28.440202)"><g><path d="M 4.109375 0 L 1.109375 0 L 1.109375 -3.125 L 4.109375 -3.125 Z M 4.109375 0 "/></g></g></g><g fill="#ff914d" fill-opacity="1"><g transform="translate(42.848786, 28.440202)"><g><path d="M 5.3125 -15.828125 C 6.820312 -15.828125 7.941406 -15.425781 8.671875 -14.625 C 9.410156 -13.832031 9.78125 -12.804688 9.78125 -11.546875 L 9.78125 -9.265625 L 5.796875 -9.265625 L 5.796875 -12.3125 C 5.796875 -12.613281 5.742188 -12.835938 5.640625 -12.984375 C 5.535156 -13.140625 5.347656 -13.21875 5.078125 -13.21875 C 4.847656 -13.21875 4.6875 -13.113281 4.59375 -12.90625 C 4.507812 -12.707031 4.46875 -12.492188 4.46875 -12.265625 L 4.46875 -3.234375 C 4.46875 -3.003906 4.507812 -2.785156 4.59375 -2.578125 C 4.6875 -2.378906 4.847656 -2.28125 5.078125 -2.28125 C 5.347656 -2.28125 5.535156 -2.363281 5.640625 -2.53125 C 5.742188 -2.707031 5.796875 -2.976562 5.796875 -3.34375 L 5.796875 -6.6875 L 9.78125 -6.6875 L 9.78125 -4.03125 C 9.78125 -3.238281 9.613281 -2.507812 9.28125 -1.84375 C 8.957031 -1.175781 8.453125 -0.644531 7.765625 -0.25 C 7.078125 0.132812 6.234375 0.328125 5.234375 0.328125 C 3.679688 0.328125 2.5 -0.0390625 1.6875 -0.78125 C 0.882812 -1.519531 0.484375 -2.710938 0.484375 -4.359375 L 0.484375 -11.140625 C 0.484375 -12.671875 0.894531 -13.832031 1.71875 -14.625 C 2.539062 -15.425781 3.738281 -15.828125 5.3125 -15.828125 Z M 5.3125 -15.828125 "/></g></g></g><g fill="#ff914d" fill-opacity="1"><g transform="translate(52.890118, 28.440202)"><g><path d="M 4.109375 0 L 1.109375 0 L 1.109375 -3.125 L 4.109375 -3.125 Z M 4.109375 0 "/></g></g></g><g fill="#ffbd59" fill-opacity="1"><g transform="translate(58.099307, 28.440202)"><g/></g></g><g fill="#000000" fill-opacity="1"><g transform="translate(63.304771, 28.440202)"><g><path d="M 4.671875 -15.828125 C 7.609375 -15.828125 9.078125 -14.71875 9.078125 -12.5 L 9.078125 -10.953125 L 5.484375 -10.953125 L 5.484375 -12.3125 C 5.484375 -13 5.222656 -13.34375 4.703125 -13.34375 C 4.253906 -13.34375 4.03125 -13.023438 4.03125 -12.390625 L 4.03125 -11.609375 C 4.03125 -11.316406 4.128906 -11.046875 4.328125 -10.796875 C 4.535156 -10.546875 4.753906 -10.335938 4.984375 -10.171875 C 5.222656 -10.015625 5.59375 -9.785156 6.09375 -9.484375 C 6.71875 -9.109375 7.25 -8.738281 7.6875 -8.375 C 8.132812 -8.007812 8.519531 -7.539062 8.84375 -6.96875 C 9.164062 -6.40625 9.328125 -5.734375 9.328125 -4.953125 L 9.328125 -3.5625 C 9.328125 -2.101562 8.910156 -1.085938 8.078125 -0.515625 C 7.253906 0.046875 6.117188 0.328125 4.671875 0.328125 C 3.078125 0.328125 1.953125 0.0078125 1.296875 -0.625 C 0.648438 -1.257812 0.328125 -2.242188 0.328125 -3.578125 L 0.328125 -5.640625 L 4.0625 -5.640625 L 4.0625 -3.078125 C 4.0625 -2.460938 4.285156 -2.15625 4.734375 -2.15625 C 4.972656 -2.15625 5.15625 -2.25 5.28125 -2.4375 C 5.40625 -2.632812 5.46875 -2.960938 5.46875 -3.421875 L 5.46875 -4.25 C 5.46875 -4.644531 5.363281 -4.992188 5.15625 -5.296875 C 4.945312 -5.597656 4.710938 -5.84375 4.453125 -6.03125 C 4.203125 -6.21875 3.847656 -6.457031 3.390625 -6.75 C 2.765625 -7.125 2.242188 -7.476562 1.828125 -7.8125 C 1.421875 -8.144531 1.0625 -8.578125 0.75 -9.109375 C 0.445312 -9.648438 0.296875 -10.289062 0.296875 -11.03125 L 0.296875 -12.0625 C 0.296875 -14.570312 1.753906 -15.828125 4.671875 -15.828125 Z M 4.671875 -15.828125 "/></g></g></g><g fill="#000000" fill-opacity="1"><g transform="translate(72.934035, 28.440202)"><g><path d="M 4.90625 -14.671875 L 4.90625 -12.71875 L 5.921875 -12.71875 L 5.921875 -10.640625 L 4.90625 -10.640625 L 4.90625 -2.5625 C 4.90625 -2.238281 5.050781 -2.078125 5.34375 -2.078125 L 5.921875 -2.078125 L 5.921875 0 L 3.6875 0 C 2.90625 0 2.3125 -0.109375 1.90625 -0.328125 C 1.5 -0.546875 1.226562 -0.851562 1.09375 -1.25 C 0.96875 -1.644531 0.90625 -2.175781 0.90625 -2.84375 L 0.90625 -10.640625 L 0.109375 -10.640625 L 0.109375 -12.71875 L 0.90625 -12.71875 L 0.90625 -14.671875 Z M 4.90625 -14.671875 "/></g></g></g><g fill="#000000" fill-opacity="1"><g transform="translate(78.963168, 28.440202)"><g><path d="M 4.734375 -13.046875 C 6.117188 -13.046875 7.203125 -12.78125 7.984375 -12.25 C 8.765625 -11.71875 9.15625 -10.757812 9.15625 -9.375 L 9.15625 0 L 5.421875 0 L 5.421875 -0.71875 C 5.066406 -0.351562 4.675781 -0.0859375 4.25 0.078125 C 3.820312 0.242188 3.40625 0.328125 3 0.328125 C 2.15625 0.328125 1.523438 0.0703125 1.109375 -0.4375 C 0.691406 -0.957031 0.484375 -1.585938 0.484375 -2.328125 L 0.484375 -4.28125 C 0.484375 -4.769531 0.53125 -5.148438 0.625 -5.421875 C 0.726562 -5.703125 0.945312 -5.957031 1.28125 -6.1875 C 1.613281 -6.414062 2.140625 -6.660156 2.859375 -6.921875 C 3.585938 -7.191406 4.117188 -7.414062 4.453125 -7.59375 C 4.796875 -7.769531 5.019531 -7.929688 5.125 -8.078125 C 5.238281 -8.234375 5.296875 -8.425781 5.296875 -8.65625 L 5.296875 -10.375 C 5.296875 -10.53125 5.238281 -10.6875 5.125 -10.84375 C 5.019531 -11.007812 4.859375 -11.09375 4.640625 -11.09375 C 4.453125 -11.09375 4.304688 -11.023438 4.203125 -10.890625 C 4.109375 -10.765625 4.0625 -10.59375 4.0625 -10.375 L 4.0625 -7.8125 L 0.484375 -7.8125 L 0.484375 -9.265625 C 0.484375 -10.648438 0.847656 -11.625 1.578125 -12.1875 C 2.304688 -12.757812 3.359375 -13.046875 4.734375 -13.046875 Z M 4.0625 -4.171875 L 4.0625 -2.75 C 4.0625 -2.59375 4.109375 -2.441406 4.203125 -2.296875 C 4.296875 -2.148438 4.4375 -2.078125 4.625 -2.078125 C 4.84375 -2.078125 5.007812 -2.148438 5.125 -2.296875 C 5.238281 -2.441406 5.296875 -2.582031 5.296875 -2.71875 L 5.296875 -6.0625 C 4.953125 -5.84375 4.660156 -5.582031 4.421875 -5.28125 C 4.179688 -4.988281 4.0625 -4.617188 4.0625 -4.171875 Z M 4.0625 -4.171875 "/></g></g></g><g fill="#000000" fill-opacity="1"><g transform="translate(88.592432, 28.440202)"><g><path d="M 4.34375 0 L 0.484375 0 L 0.484375 -15.5 L 4.34375 -15.5 Z M 4.34375 0 "/></g></g></g><g fill="#000000" fill-opacity="1"><g transform="translate(93.407064, 28.440202)"><g/></g></g><g fill="#000000" fill-opacity="1"><g transform="translate(98.612071, 28.440202)"><g><path d="M 4.671875 -15.828125 C 7.609375 -15.828125 9.078125 -14.71875 9.078125 -12.5 L 9.078125 -10.953125 L 5.484375 -10.953125 L 5.484375 -12.3125 C 5.484375 -13 5.222656 -13.34375 4.703125 -13.34375 C 4.253906 -13.34375 4.03125 -13.023438 4.03125 -12.390625 L 4.03125 -11.609375 C 4.03125 -11.316406 4.128906 -11.046875 4.328125 -10.796875 C 4.535156 -10.546875 4.753906 -10.335938 4.984375 -10.171875 C 5.222656 -10.015625 5.59375 -9.785156 6.09375 -9.484375 C 6.71875 -9.109375 7.25 -8.738281 7.6875 -8.375 C 8.132812 -8.007812 8.519531 -7.539062 8.84375 -6.96875 C 9.164062 -6.40625 9.328125 -5.734375 9.328125 -4.953125 L 9.328125 -3.5625 C 9.328125 -2.101562 8.910156 -1.085938 8.078125 -0.515625 C 7.253906 0.046875 6.117188 0.328125 4.671875 0.328125 C 3.078125 0.328125 1.953125 0.0078125 1.296875 -0.625 C 0.648438 -1.257812 0.328125 -2.242188 0.328125 -3.578125 L 0.328125 -5.640625 L 4.0625 -5.640625 L 4.0625 -3.078125 C 4.0625 -2.460938 4.285156 -2.15625 4.734375 -2.15625 C 4.972656 -2.15625 5.15625 -2.25 5.28125 -2.4375 C 5.40625 -2.632812 5.46875 -2.960938 5.46875 -3.421875 L 5.46875 -4.25 C 5.46875 -4.644531 5.363281 -4.992188 5.15625 -5.296875 C 4.945312 -5.597656 4.710938 -5.84375 4.453125 -6.03125 C 4.203125 -6.21875 3.847656 -6.457031 3.390625 -6.75 C 2.765625 -7.125 2.242188 -7.476562 1.828125 -7.8125 C 1.421875 -8.144531 1.0625 -8.578125 0.75 -9.109375 C 0.445312 -9.648438 0.296875 -10.289062 0.296875 -11.03125 L 0.296875 -12.0625 C 0.296875 -14.570312 1.753906 -15.828125 4.671875 -15.828125 Z M 4.671875 -15.828125 "/></g></g></g><g fill="#000000" fill-opacity="1"><g transform="translate(108.241335, 28.440202)"><g><path d="M 5.03125 -13.046875 C 5.832031 -13.046875 6.554688 -12.878906 7.203125 -12.546875 C 7.859375 -12.222656 8.375 -11.75 8.75 -11.125 C 9.132812 -10.507812 9.328125 -9.773438 9.328125 -8.921875 L 9.328125 -6.15625 L 4.34375 -6.15625 L 4.34375 -2.78125 C 4.34375 -2.269531 4.535156 -2.015625 4.921875 -2.015625 C 5.367188 -2.015625 5.59375 -2.296875 5.59375 -2.859375 L 5.59375 -5.1875 L 9.328125 -5.1875 L 9.328125 -3.796875 C 9.328125 -2.554688 8.960938 -1.554688 8.234375 -0.796875 C 7.503906 -0.046875 6.4375 0.328125 5.03125 0.328125 C 3.5625 0.328125 2.4375 -0.0390625 1.65625 -0.78125 C 0.875 -1.53125 0.484375 -2.535156 0.484375 -3.796875 L 0.484375 -8.921875 C 0.484375 -10.191406 0.878906 -11.195312 1.671875 -11.9375 C 2.460938 -12.675781 3.582031 -13.046875 5.03125 -13.046875 Z M 4.34375 -9.9375 L 4.34375 -8.25 L 5.59375 -8.25 L 5.59375 -9.859375 C 5.59375 -10.421875 5.367188 -10.703125 4.921875 -10.703125 C 4.535156 -10.703125 4.34375 -10.445312 4.34375 -9.9375 Z M 4.34375 -9.9375 "/></g></g></g><g fill="#000000" fill-opacity="1"><g transform="translate(117.870598, 28.440202)"><g><path d="M 6.75 -13.046875 L 6.75 -8.421875 C 6.457031 -8.453125 6.238281 -8.46875 6.09375 -8.46875 C 5.550781 -8.46875 5.140625 -8.300781 4.859375 -7.96875 C 4.585938 -7.644531 4.453125 -7.269531 4.453125 -6.84375 L 4.453125 0 L 0.59375 0 L 0.59375 -12.71875 L 4.3125 -12.71875 L 4.3125 -11.09375 L 4.359375 -11.09375 C 4.472656 -11.570312 4.769531 -12.003906 5.25 -12.390625 C 5.726562 -12.785156 6.226562 -13.003906 6.75 -13.046875 Z M 6.75 -13.046875 "/></g></g></g><g fill="#000000" fill-opacity="1"><g transform="translate(124.702176, 28.440202)"><g><path d="M 4.34375 -3.515625 L 4.390625 -3.515625 L 5.359375 -12.71875 L 8.6875 -12.71875 L 9.703125 -3.515625 L 9.75 -3.515625 L 10.328125 -12.71875 L 13.625 -12.71875 L 12.15625 0 L 7.828125 0 L 7.078125 -6.875 L 7.03125 -6.875 L 6.09375 0 L 1.6875 0 L 0.046875 -12.71875 L 3.625 -12.71875 Z M 4.34375 -3.515625 "/></g></g></g><g fill="#000000" fill-opacity="1"><g transform="translate(138.365321, 28.440202)"><g><path d="M 4.34375 -13.546875 L 0.484375 -13.546875 L 0.484375 -15.5 L 4.34375 -15.5 Z M 4.34375 0 L 0.484375 0 L 0.484375 -12.71875 L 4.34375 -12.71875 Z M 4.34375 0 "/></g></g></g><g fill="#000000" fill-opacity="1"><g transform="translate(143.179953, 28.440202)"><g><path d="M 4.703125 -13.046875 C 5.878906 -13.046875 6.851562 -12.773438 7.625 -12.234375 C 8.40625 -11.691406 8.796875 -10.90625 8.796875 -9.875 L 8.796875 -8.609375 L 5.203125 -8.609375 L 5.203125 -9.859375 C 5.203125 -10.328125 5.007812 -10.5625 4.625 -10.5625 C 4.207031 -10.5625 4 -10.328125 4 -9.859375 L 4 -9.28125 C 4 -9.019531 4.15625 -8.773438 4.46875 -8.546875 C 4.789062 -8.316406 5.253906 -8.039062 5.859375 -7.71875 L 6.296875 -7.515625 C 7.035156 -7.117188 7.582031 -6.757812 7.9375 -6.4375 C 8.300781 -6.113281 8.554688 -5.71875 8.703125 -5.25 C 8.859375 -4.789062 8.9375 -4.171875 8.9375 -3.390625 C 8.9375 -2.109375 8.566406 -1.164062 7.828125 -0.5625 C 7.097656 0.03125 5.941406 0.328125 4.359375 0.328125 C 3.046875 0.328125 2.039062 0.0664062 1.34375 -0.453125 C 0.644531 -0.972656 0.296875 -1.859375 0.296875 -3.109375 L 0.296875 -4.578125 L 3.890625 -4.578125 L 3.890625 -2.828125 C 3.890625 -2.617188 3.945312 -2.453125 4.0625 -2.328125 C 4.175781 -2.210938 4.328125 -2.15625 4.515625 -2.15625 C 4.734375 -2.15625 4.898438 -2.222656 5.015625 -2.359375 C 5.140625 -2.492188 5.203125 -2.65625 5.203125 -2.84375 L 5.203125 -3.578125 C 5.203125 -3.910156 5.066406 -4.1875 4.796875 -4.40625 C 4.523438 -4.632812 4.140625 -4.875 3.640625 -5.125 L 3.078125 -5.40625 C 2.203125 -5.851562 1.535156 -6.347656 1.078125 -6.890625 C 0.628906 -7.441406 0.40625 -8.175781 0.40625 -9.09375 C 0.40625 -10.457031 0.753906 -11.457031 1.453125 -12.09375 C 2.160156 -12.726562 3.242188 -13.046875 4.703125 -13.046875 Z M 4.703125 -13.046875 "/></g></g></g><g fill="#000000" fill-opacity="1"><g transform="translate(152.418841, 28.440202)"><g/></g></g><g fill="#000000" fill-opacity="1"><g transform="translate(157.623848, 28.440202)"><g><path d="M 5.3125 -15.828125 C 6.820312 -15.828125 7.941406 -15.425781 8.671875 -14.625 C 9.410156 -13.832031 9.78125 -12.804688 9.78125 -11.546875 L 9.78125 -9.265625 L 5.796875 -9.265625 L 5.796875 -12.3125 C 5.796875 -12.613281 5.742188 -12.835938 5.640625 -12.984375 C 5.535156 -13.140625 5.347656 -13.21875 5.078125 -13.21875 C 4.847656 -13.21875 4.6875 -13.113281 4.59375 -12.90625 C 4.507812 -12.707031 4.46875 -12.492188 4.46875 -12.265625 L 4.46875 -3.234375 C 4.46875 -3.003906 4.507812 -2.785156 4.59375 -2.578125 C 4.6875 -2.378906 4.847656 -2.28125 5.078125 -2.28125 C 5.347656 -2.28125 5.535156 -2.363281 5.640625 -2.53125 C 5.742188 -2.707031 5.796875 -2.976562 5.796875 -3.34375 L 5.796875 -6.6875 L 9.78125 -6.6875 L 9.78125 -4.03125 C 9.78125 -3.238281 9.613281 -2.507812 9.28125 -1.84375 C 8.957031 -1.175781 8.453125 -0.644531 7.765625 -0.25 C 7.078125 0.132812 6.234375 0.328125 5.234375 0.328125 C 3.679688 0.328125 2.5 -0.0390625 1.6875 -0.78125 C 0.882812 -1.519531 0.484375 -2.710938 0.484375 -4.359375 L 0.484375 -11.140625 C 0.484375 -12.671875 0.894531 -13.832031 1.71875 -14.625 C 2.539062 -15.425781 3.738281 -15.828125 5.3125 -15.828125 Z M 5.3125 -15.828125 "/></g></g></g><g fill="#000000" fill-opacity="1"><g transform="translate(167.66518, 28.440202)"><g><path d="M 5.03125 -13.046875 C 5.832031 -13.046875 6.554688 -12.878906 7.203125 -12.546875 C 7.859375 -12.222656 8.375 -11.75 8.75 -11.125 C 9.132812 -10.507812 9.328125 -9.773438 9.328125 -8.921875 L 9.328125 -6.15625 L 4.34375 -6.15625 L 4.34375 -2.78125 C 4.34375 -2.269531 4.535156 -2.015625 4.921875 -2.015625 C 5.367188 -2.015625 5.59375 -2.296875 5.59375 -2.859375 L 5.59375 -5.1875 L 9.328125 -5.1875 L 9.328125 -3.796875 C 9.328125 -2.554688 8.960938 -1.554688 8.234375 -0.796875 C 7.503906 -0.046875 6.4375 0.328125 5.03125 0.328125 C 3.5625 0.328125 2.4375 -0.0390625 1.65625 -0.78125 C 0.875 -1.53125 0.484375 -2.535156 0.484375 -3.796875 L 0.484375 -8.921875 C 0.484375 -10.191406 0.878906 -11.195312 1.671875 -11.9375 C 2.460938 -12.675781 3.582031 -13.046875 5.03125 -13.046875 Z M 4.34375 -9.9375 L 4.34375 -8.25 L 5.59375 -8.25 L 5.59375 -9.859375 C 5.59375 -10.421875 5.367188 -10.703125 4.921875 -10.703125 C 4.535156 -10.703125 4.34375 -10.445312 4.34375 -9.9375 Z M 4.34375 -9.9375 "/></g></g></g><g fill="#000000" fill-opacity="1"><g transform="translate(177.294444, 28.440202)"><g><path d="M 6.84375 -13.046875 C 7.738281 -13.046875 8.398438 -12.738281 8.828125 -12.125 C 9.253906 -11.519531 9.46875 -10.726562 9.46875 -9.75 L 9.46875 0 L 5.59375 0 L 5.59375 -9.578125 C 5.59375 -9.765625 5.550781 -9.953125 5.46875 -10.140625 C 5.382812 -10.335938 5.222656 -10.4375 4.984375 -10.4375 C 4.628906 -10.4375 4.453125 -10.15625 4.453125 -9.59375 L 4.453125 0 L 0.59375 0 L 0.59375 -12.71875 L 4.453125 -12.71875 L 4.453125 -11.734375 L 4.5 -11.734375 C 4.695312 -12.117188 5.003906 -12.429688 5.421875 -12.671875 C 5.847656 -12.921875 6.320312 -13.046875 6.84375 -13.046875 Z M 6.84375 -13.046875 "/></g></g></g><g fill="#000000" fill-opacity="1"><g transform="translate(187.335776, 28.440202)"><g><path d="M 4.90625 -14.671875 L 4.90625 -12.71875 L 5.921875 -12.71875 L 5.921875 -10.640625 L 4.90625 -10.640625 L 4.90625 -2.5625 C 4.90625 -2.238281 5.050781 -2.078125 5.34375 -2.078125 L 5.921875 -2.078125 L 5.921875 0 L 3.6875 0 C 2.90625 0 2.3125 -0.109375 1.90625 -0.328125 C 1.5 -0.546875 1.226562 -0.851562 1.09375 -1.25 C 0.96875 -1.644531 0.90625 -2.175781 0.90625 -2.84375 L 0.90625 -10.640625 L 0.109375 -10.640625 L 0.109375 -12.71875 L 0.90625 -12.71875 L 0.90625 -14.671875 Z M 4.90625 -14.671875 "/></g></g></g><g fill="#000000" fill-opacity="1"><g transform="translate(193.36491, 28.440202)"><g><path d="M 6.75 -13.046875 L 6.75 -8.421875 C 6.457031 -8.453125 6.238281 -8.46875 6.09375 -8.46875 C 5.550781 -8.46875 5.140625 -8.300781 4.859375 -7.96875 C 4.585938 -7.644531 4.453125 -7.269531 4.453125 -6.84375 L 4.453125 0 L 0.59375 0 L 0.59375 -12.71875 L 4.3125 -12.71875 L 4.3125 -11.09375 L 4.359375 -11.09375 C 4.472656 -11.570312 4.769531 -12.003906 5.25 -12.390625 C 5.726562 -12.785156 6.226562 -13.003906 6.75 -13.046875 Z M 6.75 -13.046875 "/></g></g></g><g fill="#000000" fill-opacity="1"><g transform="translate(200.196488, 28.440202)"><g><path d="M 4.453125 -3.140625 C 4.453125 -2.953125 4.492188 -2.757812 4.578125 -2.5625 C 4.660156 -2.375 4.820312 -2.28125 5.0625 -2.28125 C 5.414062 -2.28125 5.59375 -2.5625 5.59375 -3.125 L 5.59375 -12.71875 L 9.46875 -12.71875 L 9.46875 0 L 5.59375 0 L 5.59375 -0.984375 L 5.5625 -0.984375 C 5.382812 -0.585938 5.0625 -0.269531 4.59375 -0.03125 C 4.125 0.207031 3.664062 0.328125 3.21875 0.328125 C 2.289062 0.328125 1.617188 0.015625 1.203125 -0.609375 C 0.796875 -1.234375 0.59375 -2.019531 0.59375 -2.96875 L 0.59375 -12.71875 L 4.453125 -12.71875 Z M 4.453125 -3.140625 "/></g></g></g><g fill="#000000" fill-opacity="1"><g transform="translate(210.23782, 28.440202)"><g><path d="M 9.140625 -11.59375 C 9.554688 -12.070312 9.960938 -12.429688 10.359375 -12.671875 C 10.753906 -12.921875 11.191406 -13.046875 11.671875 -13.046875 C 12.585938 -13.046875 13.253906 -12.738281 13.671875 -12.125 C 14.085938 -11.519531 14.296875 -10.726562 14.296875 -9.75 L 14.296875 0 L 10.4375 0 L 10.4375 -9.578125 C 10.4375 -9.773438 10.390625 -9.96875 10.296875 -10.15625 C 10.210938 -10.34375 10.054688 -10.4375 9.828125 -10.4375 C 9.484375 -10.4375 9.3125 -10.15625 9.3125 -9.59375 L 9.3125 0 L 5.578125 0 L 5.578125 -9.578125 C 5.578125 -9.847656 5.519531 -10.054688 5.40625 -10.203125 C 5.300781 -10.359375 5.160156 -10.4375 4.984375 -10.4375 C 4.628906 -10.4375 4.453125 -10.15625 4.453125 -9.59375 L 4.453125 0 L 0.59375 0 L 0.59375 -12.71875 L 4.453125 -12.71875 L 4.453125 -11.734375 L 4.5 -11.734375 C 4.613281 -12.046875 4.894531 -12.34375 5.34375 -12.625 C 5.789062 -12.90625 6.289062 -13.046875 6.84375 -13.046875 C 7.34375 -13.046875 7.785156 -12.914062 8.171875 -12.65625 C 8.566406 -12.394531 8.890625 -12.039062 9.140625 -11.59375 Z M 9.140625 -11.59375 "/></g></g></g><g fill="#000000" fill-opacity="1"><g transform="translate(158.986182, 47.432102)"><g><path d="M 2.453125 0 L 0.65625 0 L 0.65625 -1.875 L 2.453125 -1.875 Z M 2.453125 0 "/></g></g></g><g fill="#000000" fill-opacity="1"><g transform="translate(162.099614, 47.432102)"><g><path d="M 2.453125 0 L 0.65625 0 L 0.65625 -1.875 L 2.453125 -1.875 Z M 2.453125 0 "/></g></g></g><g fill="#000000" fill-opacity="1"><g transform="translate(165.213045, 47.432102)"><g><path d="M 2.453125 0 L 0.65625 0 L 0.65625 -1.875 L 2.453125 -1.875 Z M 2.453125 0 "/></g></g></g><g fill="#000000" fill-opacity="1"><g transform="translate(168.326477, 47.432102)"><g><path d="M 5.234375 -7.390625 L 3.828125 -7.390625 L 3.828125 0 L 1.4375 0 L 1.4375 -7.390625 L 0.03125 -7.390625 L 0.03125 -9.265625 L 5.234375 -9.265625 Z M 5.234375 -7.390625 "/></g></g></g><g fill="#000000" fill-opacity="1"><g transform="translate(173.593365, 47.432102)"><g><path d="M 2.59375 -2.09375 L 2.625 -2.09375 L 3.203125 -7.59375 L 5.1875 -7.59375 L 5.796875 -2.09375 L 5.828125 -2.09375 L 6.171875 -7.59375 L 8.140625 -7.59375 L 7.265625 0 L 4.6875 0 L 4.234375 -4.109375 L 4.203125 -4.109375 L 3.640625 0 L 1.015625 0 L 0.03125 -7.59375 L 2.171875 -7.59375 Z M 2.59375 -2.09375 "/></g></g></g><g fill="#000000" fill-opacity="1"><g transform="translate(181.766132, 47.432102)"><g><path d="M 3.015625 -7.796875 C 3.878906 -7.796875 4.546875 -7.570312 5.015625 -7.125 C 5.492188 -6.675781 5.734375 -6.078125 5.734375 -5.328125 L 5.734375 -2.265625 C 5.734375 -1.515625 5.492188 -0.914062 5.015625 -0.46875 C 4.546875 -0.03125 3.878906 0.1875 3.015625 0.1875 C 2.140625 0.1875 1.460938 -0.03125 0.984375 -0.46875 C 0.515625 -0.914062 0.28125 -1.515625 0.28125 -2.265625 L 0.28125 -5.328125 C 0.28125 -6.078125 0.515625 -6.675781 0.984375 -7.125 C 1.460938 -7.570312 2.140625 -7.796875 3.015625 -7.796875 Z M 2.59375 -5.90625 L 2.59375 -1.84375 C 2.59375 -1.707031 2.628906 -1.59375 2.703125 -1.5 C 2.785156 -1.40625 2.890625 -1.359375 3.015625 -1.359375 C 3.128906 -1.359375 3.222656 -1.40625 3.296875 -1.5 C 3.378906 -1.59375 3.421875 -1.707031 3.421875 -1.84375 L 3.421875 -5.90625 C 3.421875 -6.050781 3.378906 -6.164062 3.296875 -6.25 C 3.222656 -6.34375 3.128906 -6.390625 3.015625 -6.390625 C 2.859375 -6.390625 2.75 -6.332031 2.6875 -6.21875 C 2.625 -6.113281 2.59375 -6.007812 2.59375 -5.90625 Z M 2.890625 -8.234375 L 1.953125 -8.234375 L 3.0625 -9.640625 L 5.28125 -9.640625 Z M 2.890625 -8.234375 "/></g></g></g><g fill="#000000" fill-opacity="1"><g transform="translate(187.785441, 47.432102)"><g><path d="M 2.59375 -8.09375 L 0.28125 -8.09375 L 0.28125 -9.265625 L 2.59375 -9.265625 Z M 2.59375 -7.59375 L 2.59375 -0.71875 C 2.59375 -0.21875 2.515625 0.160156 2.359375 0.421875 C 2.203125 0.691406 1.976562 0.875 1.6875 0.96875 C 1.394531 1.0625 1.007812 1.109375 0.53125 1.109375 C 0.46875 1.109375 0.289062 1.101562 0 1.09375 L -0.15625 1.078125 L -0.15625 -0.046875 C 0.0195312 -0.0546875 0.132812 -0.0859375 0.1875 -0.140625 C 0.25 -0.191406 0.28125 -0.300781 0.28125 -0.46875 L 0.28125 -7.59375 Z M 2.59375 -7.59375 "/></g></g></g><g fill="#000000" fill-opacity="1"><g transform="translate(190.665365, 47.432102)"><g/></g></g><g fill="#000000" fill-opacity="1"><g transform="translate(193.778796, 47.432102)"><g><path d="M 2.8125 -7.796875 C 3.507812 -7.796875 4.085938 -7.632812 4.546875 -7.3125 C 5.015625 -6.988281 5.25 -6.519531 5.25 -5.90625 L 5.25 -5.15625 L 3.109375 -5.15625 L 3.109375 -5.890625 C 3.109375 -6.171875 2.992188 -6.3125 2.765625 -6.3125 C 2.515625 -6.3125 2.390625 -6.171875 2.390625 -5.890625 L 2.390625 -5.546875 C 2.390625 -5.390625 2.484375 -5.242188 2.671875 -5.109375 C 2.859375 -4.972656 3.132812 -4.804688 3.5 -4.609375 L 3.765625 -4.484375 C 4.203125 -4.253906 4.53125 -4.039062 4.75 -3.84375 C 4.96875 -3.644531 5.117188 -3.40625 5.203125 -3.125 C 5.296875 -2.851562 5.34375 -2.484375 5.34375 -2.015625 C 5.34375 -1.253906 5.117188 -0.695312 4.671875 -0.34375 C 4.234375 0.0078125 3.546875 0.1875 2.609375 0.1875 C 1.816406 0.1875 1.210938 0.0351562 0.796875 -0.265625 C 0.390625 -0.578125 0.1875 -1.109375 0.1875 -1.859375 L 0.1875 -2.734375 L 2.328125 -2.734375 L 2.328125 -1.6875 C 2.328125 -1.5625 2.359375 -1.460938 2.421875 -1.390625 C 2.492188 -1.316406 2.585938 -1.28125 2.703125 -1.28125 C 2.828125 -1.28125 2.925781 -1.320312 3 -1.40625 C 3.070312 -1.488281 3.109375 -1.585938 3.109375 -1.703125 L 3.109375 -2.140625 C 3.109375 -2.335938 3.023438 -2.503906 2.859375 -2.640625 C 2.703125 -2.773438 2.472656 -2.914062 2.171875 -3.0625 L 1.84375 -3.234375 C 1.3125 -3.492188 0.910156 -3.785156 0.640625 -4.109375 C 0.378906 -4.441406 0.25 -4.882812 0.25 -5.4375 C 0.25 -6.25 0.457031 -6.84375 0.875 -7.21875 C 1.289062 -7.601562 1.9375 -7.796875 2.8125 -7.796875 Z M 2.8125 -7.796875 "/></g></g></g><g fill="#000000" fill-opacity="1"><g transform="translate(199.305147, 47.432102)"><g><path d="M 2.9375 -8.765625 L 2.9375 -7.59375 L 3.546875 -7.59375 L 3.546875 -6.359375 L 2.9375 -6.359375 L 2.9375 -1.53125 C 2.9375 -1.34375 3.019531 -1.25 3.1875 -1.25 L 3.546875 -1.25 L 3.546875 0 L 2.203125 0 C 1.734375 0 1.378906 -0.0625 1.140625 -0.1875 C 0.898438 -0.320312 0.738281 -0.507812 0.65625 -0.75 C 0.582031 -0.988281 0.546875 -1.304688 0.546875 -1.703125 L 0.546875 -6.359375 L 0.0625 -6.359375 L 0.0625 -7.59375 L 0.546875 -7.59375 L 0.546875 -8.765625 Z M 2.9375 -8.765625 "/></g></g></g><g fill="#000000" fill-opacity="1"><g transform="translate(202.911537, 47.432102)"><g><path d="M 2.828125 -7.796875 C 3.660156 -7.796875 4.304688 -7.632812 4.765625 -7.3125 C 5.234375 -7 5.46875 -6.429688 5.46875 -5.609375 L 5.46875 0 L 3.25 0 L 3.25 -0.421875 C 3.03125 -0.210938 2.789062 -0.0625 2.53125 0.03125 C 2.28125 0.132812 2.035156 0.1875 1.796875 0.1875 C 1.285156 0.1875 0.90625 0.0351562 0.65625 -0.265625 C 0.40625 -0.566406 0.28125 -0.941406 0.28125 -1.390625 L 0.28125 -2.5625 C 0.28125 -2.851562 0.3125 -3.078125 0.375 -3.234375 C 0.4375 -3.398438 0.566406 -3.550781 0.765625 -3.6875 C 0.960938 -3.832031 1.28125 -3.984375 1.71875 -4.140625 C 2.144531 -4.304688 2.457031 -4.4375 2.65625 -4.53125 C 2.863281 -4.632812 3 -4.734375 3.0625 -4.828125 C 3.132812 -4.921875 3.171875 -5.035156 3.171875 -5.171875 L 3.171875 -6.203125 C 3.171875 -6.296875 3.132812 -6.390625 3.0625 -6.484375 C 3 -6.578125 2.90625 -6.625 2.78125 -6.625 C 2.664062 -6.625 2.578125 -6.582031 2.515625 -6.5 C 2.453125 -6.425781 2.421875 -6.328125 2.421875 -6.203125 L 2.421875 -4.671875 L 0.28125 -4.671875 L 0.28125 -5.53125 C 0.28125 -6.363281 0.5 -6.945312 0.9375 -7.28125 C 1.375 -7.625 2.003906 -7.796875 2.828125 -7.796875 Z M 2.421875 -2.484375 L 2.421875 -1.640625 C 2.421875 -1.546875 2.445312 -1.457031 2.5 -1.375 C 2.5625 -1.289062 2.648438 -1.25 2.765625 -1.25 C 2.890625 -1.25 2.988281 -1.289062 3.0625 -1.375 C 3.132812 -1.457031 3.171875 -1.539062 3.171875 -1.625 L 3.171875 -3.625 C 2.960938 -3.488281 2.785156 -3.332031 2.640625 -3.15625 C 2.492188 -2.976562 2.421875 -2.753906 2.421875 -2.484375 Z M 2.421875 -2.484375 "/></g></g></g><g fill="#000000" fill-opacity="1"><g transform="translate(208.671396, 47.432102)"><g><path d="M 2.59375 0 L 0.28125 0 L 0.28125 -9.265625 L 2.59375 -9.265625 Z M 2.59375 0 "/></g></g></g><g fill="#000000" fill-opacity="1"><g transform="translate(211.551319, 47.432102)"><g><path d="M 3.015625 -7.796875 C 3.878906 -7.796875 4.546875 -7.570312 5.015625 -7.125 C 5.492188 -6.675781 5.734375 -6.078125 5.734375 -5.328125 L 5.734375 -2.265625 C 5.734375 -1.515625 5.492188 -0.914062 5.015625 -0.46875 C 4.546875 -0.03125 3.878906 0.1875 3.015625 0.1875 C 2.140625 0.1875 1.460938 -0.03125 0.984375 -0.46875 C 0.515625 -0.914062 0.28125 -1.515625 0.28125 -2.265625 L 0.28125 -5.328125 C 0.28125 -6.078125 0.515625 -6.675781 0.984375 -7.125 C 1.460938 -7.570312 2.140625 -7.796875 3.015625 -7.796875 Z M 2.59375 -5.90625 L 2.59375 -1.84375 C 2.59375 -1.707031 2.628906 -1.59375 2.703125 -1.5 C 2.785156 -1.40625 2.890625 -1.359375 3.015625 -1.359375 C 3.128906 -1.359375 3.222656 -1.40625 3.296875 -1.5 C 3.378906 -1.59375 3.421875 -1.707031 3.421875 -1.84375 L 3.421875 -5.90625 C 3.421875 -6.050781 3.378906 -6.164062 3.296875 -6.25 C 3.222656 -6.34375 3.128906 -6.390625 3.015625 -6.390625 C 2.859375 -6.390625 2.75 -6.332031 2.6875 -6.21875 C 2.625 -6.113281 2.59375 -6.007812 2.59375 -5.90625 Z M 2.59375 -5.90625 "/></g></g></g><g fill="#000000" fill-opacity="1"><g transform="translate(217.570629, 47.432102)"><g><path d="M 2.59375 -2.09375 L 2.625 -2.09375 L 3.203125 -7.59375 L 5.1875 -7.59375 L 5.796875 -2.09375 L 5.828125 -2.09375 L 6.171875 -7.59375 L 8.140625 -7.59375 L 7.265625 0 L 4.6875 0 L 4.234375 -4.109375 L 4.203125 -4.109375 L 3.640625 0 L 1.015625 0 L 0.03125 -7.59375 L 2.171875 -7.59375 Z M 2.59375 -2.09375 "/></g></g></g><g fill="#000000" fill-opacity="1"><g transform="translate(225.743395, 47.432102)"><g><path d="M 2.828125 -1.75 L 2.859375 -1.75 L 3.25 -7.59375 L 5.28125 -7.59375 L 4.390625 -1.09375 C 4.335938 -0.675781 4.265625 -0.3125 4.171875 0 C 4.078125 0.300781 3.914062 0.5625 3.6875 0.78125 C 3.46875 1 3.164062 1.109375 2.78125 1.109375 L 0.328125 1.109375 L 0.328125 0.03125 L 0.875 0.03125 C 1.03125 0.03125 1.140625 -0.00390625 1.203125 -0.078125 C 1.273438 -0.148438 1.3125 -0.265625 1.3125 -0.421875 C 1.3125 -0.503906 1.289062 -0.648438 1.25 -0.859375 L 0 -7.59375 L 2.234375 -7.59375 Z M 2.828125 -1.75 "/></g></g></g><g fill="#000000" fill-opacity="1"><g transform="translate(231.023261, 47.432102)"><g/></g></g><g fill="#000000" fill-opacity="1"><g transform="translate(234.136692, 47.432102)"><g><path d="M 4.15625 -7.796875 C 4.695312 -7.796875 5.09375 -7.613281 5.34375 -7.25 C 5.601562 -6.894531 5.734375 -6.3125 5.734375 -5.5 L 5.734375 -2.328125 C 5.734375 -1.523438 5.613281 -0.90625 5.375 -0.46875 C 5.144531 -0.03125 4.71875 0.1875 4.09375 0.1875 C 3.53125 0.1875 3.039062 -0.09375 2.625 -0.65625 L 2.59375 -0.65625 L 2.59375 1.109375 L 0.28125 1.109375 L 0.28125 -7.59375 L 2.59375 -7.59375 L 2.59375 -6.96875 C 2.84375 -7.25 3.101562 -7.457031 3.375 -7.59375 C 3.644531 -7.726562 3.90625 -7.796875 4.15625 -7.796875 Z M 2.59375 -5.8125 L 2.59375 -1.984375 C 2.59375 -1.847656 2.625 -1.707031 2.6875 -1.5625 C 2.75 -1.425781 2.859375 -1.359375 3.015625 -1.359375 C 3.285156 -1.359375 3.421875 -1.5625 3.421875 -1.96875 L 3.421875 -5.828125 C 3.421875 -5.992188 3.390625 -6.113281 3.328125 -6.1875 C 3.265625 -6.269531 3.160156 -6.3125 3.015625 -6.3125 C 2.734375 -6.3125 2.59375 -6.144531 2.59375 -5.8125 Z M 2.59375 -5.8125 "/></g></g></g><g fill="#000000" fill-opacity="1"><g transform="translate(240.156001, 47.432102)"><g><path d="M 2.828125 -7.796875 C 3.660156 -7.796875 4.304688 -7.632812 4.765625 -7.3125 C 5.234375 -7 5.46875 -6.429688 5.46875 -5.609375 L 5.46875 0 L 3.25 0 L 3.25 -0.421875 C 3.03125 -0.210938 2.789062 -0.0625 2.53125 0.03125 C 2.28125 0.132812 2.035156 0.1875 1.796875 0.1875 C 1.285156 0.1875 0.90625 0.0351562 0.65625 -0.265625 C 0.40625 -0.566406 0.28125 -0.941406 0.28125 -1.390625 L 0.28125 -2.5625 C 0.28125 -2.851562 0.3125 -3.078125 0.375 -3.234375 C 0.4375 -3.398438 0.566406 -3.550781 0.765625 -3.6875 C 0.960938 -3.832031 1.28125 -3.984375 1.71875 -4.140625 C 2.144531 -4.304688 2.457031 -4.4375 2.65625 -4.53125 C 2.863281 -4.632812 3 -4.734375 3.0625 -4.828125 C 3.132812 -4.921875 3.171875 -5.035156 3.171875 -5.171875 L 3.171875 -6.203125 C 3.171875 -6.296875 3.132812 -6.390625 3.0625 -6.484375 C 3 -6.578125 2.90625 -6.625 2.78125 -6.625 C 2.664062 -6.625 2.578125 -6.582031 2.515625 -6.5 C 2.453125 -6.425781 2.421875 -6.328125 2.421875 -6.203125 L 2.421875 -4.671875 L 0.28125 -4.671875 L 0.28125 -5.53125 C 0.28125 -6.363281 0.5 -6.945312 0.9375 -7.28125 C 1.375 -7.625 2.003906 -7.796875 2.828125 -7.796875 Z M 2.421875 -2.484375 L 2.421875 -1.640625 C 2.421875 -1.546875 2.445312 -1.457031 2.5 -1.375 C 2.5625 -1.289062 2.648438 -1.25 2.765625 -1.25 C 2.890625 -1.25 2.988281 -1.289062 3.0625 -1.375 C 3.132812 -1.457031 3.171875 -1.539062 3.171875 -1.625 L 3.171875 -3.625 C 2.960938 -3.488281 2.785156 -3.332031 2.640625 -3.15625 C 2.492188 -2.976562 2.421875 -2.753906 2.421875 -2.484375 Z M 2.421875 -2.484375 "/></g></g></g><g fill="#000000" fill-opacity="1"><g transform="translate(245.91586, 47.432102)"><g><path d="M 4.03125 -7.796875 L 4.03125 -5.03125 C 3.863281 -5.050781 3.734375 -5.0625 3.640625 -5.0625 C 3.316406 -5.0625 3.070312 -4.960938 2.90625 -4.765625 C 2.738281 -4.566406 2.65625 -4.335938 2.65625 -4.078125 L 2.65625 0 L 0.34375 0 L 0.34375 -7.59375 L 2.578125 -7.59375 L 2.578125 -6.625 L 2.609375 -6.625 C 2.671875 -6.914062 2.84375 -7.175781 3.125 -7.40625 C 3.414062 -7.632812 3.71875 -7.765625 4.03125 -7.796875 Z M 4.03125 -7.796875 "/></g></g></g><g fill="#000000" fill-opacity="1"><g transform="translate(250.002243, 47.432102)"><g><path d="M 2.9375 -8.765625 L 2.9375 -7.59375 L 3.546875 -7.59375 L 3.546875 -6.359375 L 2.9375 -6.359375 L 2.9375 -1.53125 C 2.9375 -1.34375 3.019531 -1.25 3.1875 -1.25 L 3.546875 -1.25 L 3.546875 0 L 2.203125 0 C 1.734375 0 1.378906 -0.0625 1.140625 -0.1875 C 0.898438 -0.320312 0.738281 -0.507812 0.65625 -0.75 C 0.582031 -0.988281 0.546875 -1.304688 0.546875 -1.703125 L 0.546875 -6.359375 L 0.0625 -6.359375 L 0.0625 -7.59375 L 0.546875 -7.59375 L 0.546875 -8.765625 Z M 2.9375 -8.765625 "/></g></g></g><g fill="#000000" fill-opacity="1"><g transform="translate(253.608633, 47.432102)"><g><path d="M 4.078125 -7.796875 C 4.617188 -7.796875 5.015625 -7.613281 5.265625 -7.25 C 5.523438 -6.882812 5.65625 -6.410156 5.65625 -5.828125 L 5.65625 0 L 3.34375 0 L 3.34375 -5.71875 C 3.34375 -5.832031 3.316406 -5.945312 3.265625 -6.0625 C 3.210938 -6.175781 3.117188 -6.234375 2.984375 -6.234375 C 2.765625 -6.234375 2.65625 -6.066406 2.65625 -5.734375 L 2.65625 0 L 0.34375 0 L 0.34375 -7.59375 L 2.65625 -7.59375 L 2.65625 -7.015625 L 2.6875 -7.015625 C 2.800781 -7.242188 2.984375 -7.429688 3.234375 -7.578125 C 3.492188 -7.722656 3.773438 -7.796875 4.078125 -7.796875 Z M 4.078125 -7.796875 "/></g></g></g><g fill="#000000" fill-opacity="1"><g transform="translate(259.614965, 47.432102)"><g><path d="M 3.015625 -7.796875 C 3.484375 -7.796875 3.910156 -7.695312 4.296875 -7.5 C 4.691406 -7.300781 5.003906 -7.015625 5.234375 -6.640625 C 5.460938 -6.273438 5.578125 -5.835938 5.578125 -5.328125 L 5.578125 -3.6875 L 2.59375 -3.6875 L 2.59375 -1.65625 C 2.59375 -1.351562 2.707031 -1.203125 2.9375 -1.203125 C 3.207031 -1.203125 3.34375 -1.375 3.34375 -1.71875 L 3.34375 -3.09375 L 5.578125 -3.09375 L 5.578125 -2.265625 C 5.578125 -1.523438 5.359375 -0.929688 4.921875 -0.484375 C 4.484375 -0.0351562 3.847656 0.1875 3.015625 0.1875 C 2.128906 0.1875 1.453125 -0.03125 0.984375 -0.46875 C 0.515625 -0.914062 0.28125 -1.515625 0.28125 -2.265625 L 0.28125 -5.328125 C 0.28125 -6.085938 0.519531 -6.6875 1 -7.125 C 1.476562 -7.570312 2.148438 -7.796875 3.015625 -7.796875 Z M 2.59375 -5.9375 L 2.59375 -4.921875 L 3.34375 -4.921875 L 3.34375 -5.890625 C 3.34375 -6.222656 3.207031 -6.390625 2.9375 -6.390625 C 2.707031 -6.390625 2.59375 -6.238281 2.59375 -5.9375 Z M 2.59375 -5.9375 "/></g></g></g><g fill="#000000" fill-opacity="1"><g transform="translate(265.374824, 47.432102)"><g><path d="M 4.03125 -7.796875 L 4.03125 -5.03125 C 3.863281 -5.050781 3.734375 -5.0625 3.640625 -5.0625 C 3.316406 -5.0625 3.070312 -4.960938 2.90625 -4.765625 C 2.738281 -4.566406 2.65625 -4.335938 2.65625 -4.078125 L 2.65625 0 L 0.34375 0 L 0.34375 -7.59375 L 2.578125 -7.59375 L 2.578125 -6.625 L 2.609375 -6.625 C 2.671875 -6.914062 2.84375 -7.175781 3.125 -7.40625 C 3.414062 -7.632812 3.71875 -7.765625 4.03125 -7.796875 Z M 4.03125 -7.796875 "/></g></g></g></svg>